<svg width="64" height="64" viewBox="0 0 64 64" fill="none" xmlns="http://www.w3.org/2000/svg">
<g id="BagSimple">
<path id="Vector" d="M54 16H44C44 12.8174 42.7357 9.76515 40.4853 7.51472C38.2348 5.26428 35.1826 4 32 4C28.8174 4 25.7652 5.26428 23.5147 7.51472C21.2643 9.76515 20 12.8174 20 16H10C8.93913 16 7.92172 16.4214 7.17157 17.1716C6.42143 17.9217 6 18.9391 6 20V50C6 51.0609 6.42143 52.0783 7.17157 52.8284C7.92172 53.5786 8.93913 54 10 54H54C55.0609 54 56.0783 53.5786 56.8284 52.8284C57.5786 52.0783 58 51.0609 58 50V20C58 18.9391 57.5786 17.9217 56.8284 17.1716C56.0783 16.4214 55.0609 16 54 16ZM32 8C34.1217 8 36.1566 8.84285 37.6569 10.3431C39.1571 11.8434 40 13.8783 40 16H24C24 13.8783 24.8429 11.8434 26.3431 10.3431C27.8434 8.84285 29.8783 8 32 8ZM54 50H10V20H54V50Z" fill="#2E7BB2"/>
</g>
</svg>
