<svg width="64" height="64" viewBox="0 0 64 64" fill="none" xmlns="http://www.w3.org/2000/svg">
<g id="ClockCountdown">
<path id="Vector" d="M57.9999 34.165C57.575 39.1049 55.748 43.8207 52.734 47.7576C49.72 51.6945 45.6442 54.6887 40.9863 56.3879C36.3284 58.0871 31.2821 58.4206 26.441 57.3492C21.6 56.2779 17.1656 53.8461 13.6597 50.3402C10.1537 46.8342 7.72198 42.3999 6.65061 37.5588C5.57923 32.7178 5.91276 27.6715 7.61196 23.0135C9.31116 18.3556 12.3053 14.2799 16.2422 11.2659C20.1791 8.25182 24.8949 6.42487 29.8349 5.99996C30.0975 5.97829 30.3619 6.00857 30.6128 6.08906C30.8638 6.16955 31.0964 6.29868 31.2974 6.46907C31.4985 6.63947 31.664 6.84779 31.7845 7.08215C31.905 7.31651 31.9782 7.57232 31.9999 7.83496C32.0216 8.0976 31.9913 8.36194 31.9108 8.61289C31.8303 8.86383 31.7012 9.09646 31.5308 9.2975C31.3604 9.49854 31.1521 9.66405 30.9177 9.78458C30.6833 9.9051 30.4275 9.97829 30.1649 9.99996C25.9839 10.3592 21.9924 11.9051 18.6602 14.4559C15.3279 17.0066 12.7935 20.456 11.3552 24.3983C9.91686 28.3405 9.63442 32.6116 10.5411 36.7089C11.4478 40.8062 13.5059 44.5593 16.4732 47.5267C19.4405 50.494 23.1936 52.5521 27.291 53.4587C31.3883 54.3654 35.6593 54.083 39.6016 52.6446C43.5438 51.2063 46.9932 48.6719 49.544 45.3397C52.0947 42.0074 53.6407 38.016 53.9999 33.835C54.0436 33.3045 54.2963 32.8132 54.7023 32.4691C55.1084 32.1249 55.6345 31.9562 56.1649 32C56.6953 32.0437 57.1866 32.2964 57.5308 32.7024C57.8749 33.1084 58.0436 33.6345 57.9999 34.165ZM29.9999 18V32C29.9999 32.5304 30.2106 33.0391 30.5857 33.4142C30.9607 33.7892 31.4695 34 31.9999 34H45.9999C46.5303 34 47.039 33.7892 47.4141 33.4142C47.7892 33.0391 47.9999 32.5304 47.9999 32C47.9999 31.4695 47.7892 30.9608 47.4141 30.5857C47.039 30.2107 46.5303 30 45.9999 30H33.9999V18C33.9999 17.4695 33.7892 16.9608 33.4141 16.5857C33.039 16.2107 32.5303 16 31.9999 16C31.4695 16 30.9607 16.2107 30.5857 16.5857C30.2106 16.9608 29.9999 17.4695 29.9999 18ZM39.9999 12C40.5932 12 41.1732 11.824 41.6666 11.4944C42.1599 11.1647 42.5445 10.6962 42.7715 10.148C42.9986 9.59983 43.058 8.99663 42.9422 8.41469C42.8265 7.83275 42.5408 7.2982 42.1212 6.87864C41.7016 6.45908 41.1671 6.17336 40.5852 6.0576C40.0032 5.94185 39.4 6.00126 38.8518 6.22832C38.3037 6.45538 37.8351 6.8399 37.5055 7.33325C37.1758 7.8266 36.9999 8.40662 36.9999 8.99996C36.9999 9.79561 37.316 10.5587 37.8786 11.1213C38.4412 11.6839 39.2042 12 39.9999 12ZM48.9999 18C49.5932 18 50.1732 17.824 50.6666 17.4944C51.1599 17.1647 51.5445 16.6962 51.7715 16.148C51.9986 15.5998 52.058 14.9966 51.9422 14.4147C51.8265 13.8327 51.5408 13.2982 51.1212 12.8786C50.7016 12.4591 50.1671 12.1734 49.5852 12.0576C49.0032 11.9418 48.4 12.0013 47.8518 12.2283C47.3037 12.4554 46.8351 12.8399 46.5055 13.3332C46.1758 13.8266 45.9999 14.4066 45.9999 15C45.9999 15.7956 46.316 16.5587 46.8786 17.1213C47.4412 17.6839 48.2042 18 48.9999 18ZM54.9999 27C55.5932 27 56.1732 26.824 56.6666 26.4944C57.1599 26.1647 57.5445 25.6962 57.7715 25.148C57.9986 24.5998 58.058 23.9966 57.9422 23.4147C57.8265 22.8327 57.5408 22.2982 57.1212 21.8786C56.7016 21.4591 56.1671 21.1734 55.5852 21.0576C55.0032 20.9418 54.4 21.0013 53.8518 21.2283C53.3037 21.4554 52.8351 21.8399 52.5055 22.3332C52.1758 22.8266 51.9999 23.4066 51.9999 24C51.9999 24.7956 52.316 25.5587 52.8786 26.1213C53.4412 26.6839 54.2042 27 54.9999 27Z" fill="#2E7BB2"/>
</g>
</svg>
