<svg width="206" height="54" viewBox="0 0 206 54" fill="none" xmlns="http://www.w3.org/2000/svg">
<path d="M28.1513 7.59718C24.3938 7.60377 21.5082 10.5054 21.5186 14.2666C21.5289 18.0108 24.4372 20.887 28.2106 20.8776C31.9633 20.8691 34.864 17.9543 34.8489 14.2073C34.8338 10.4602 31.9266 7.58965 28.1513 7.59718ZM29.6331 17.9393C28.2266 18.5653 26.8963 18.3159 25.7411 17.3085C24.2451 16.0017 23.9984 13.4917 25.1677 11.8103C25.4892 11.3391 25.9167 10.9499 26.4158 10.674C26.9149 10.398 27.4719 10.2429 28.0418 10.2212C28.6118 10.1995 29.1789 10.3118 29.6975 10.549C30.2162 10.7862 30.6721 11.1418 31.0284 11.5871C31.6149 12.3064 31.92 13.2178 31.919 14.5603C31.8635 15.9179 31.2045 17.2388 29.6331 17.9393Z" fill="#DB4437"/>
<path d="M42.6605 7.59229C38.8786 7.59794 35.976 10.4996 35.9864 14.2767C35.9939 18.004 38.9172 20.884 42.6868 20.8793C46.4254 20.8746 49.3289 17.9871 49.3327 14.2739C49.3355 10.4883 46.4376 7.58758 42.6605 7.59229ZM42.1784 18.2196C40.7559 18.0605 39.5423 16.9769 39.0989 15.4752C38.534 13.5584 39.3342 11.4862 40.9602 10.6455C43.3195 9.42157 46.0902 10.9816 46.3689 13.6864C46.3878 13.8747 46.3915 14.063 46.3943 14.1158C46.3934 16.7123 44.5133 18.4814 42.1784 18.2196Z" fill="#F4B400"/>
<path d="M72.7278 16.2396C75.6605 15.0251 78.595 13.8097 81.5833 12.5735C81.3536 12.0463 81.1756 11.5765 80.9516 11.1293C79.2644 7.77953 75.636 6.5961 72.4999 8.4235C70.4428 9.62294 69.5249 11.5379 69.3931 13.8596C69.1191 18.8814 73.8962 22.2848 78.5131 20.3614C79.7258 19.8558 80.6785 19.0235 81.4411 17.9333L79.1816 16.4364C77.3231 19.1949 73.6278 18.5688 72.7278 16.2396ZM74.8649 10.2867C76.1924 9.91009 77.5641 10.4354 78.1205 11.5765L72.2335 14.0243C72.0876 12.3466 73.2362 10.748 74.8649 10.2867Z" fill="#DB4437"/>
<path d="M20.4512 9.62397H19.9146C17.1692 9.62397 14.4239 9.62397 11.6786 9.62397C11.5072 9.62397 11.3368 9.64562 11.1655 9.65692H11.0713C11.045 9.67198 10.9969 9.68611 10.9969 9.70211C10.9847 10.5664 10.9734 11.4316 10.98 12.2968C10.98 12.3373 11.1476 12.3759 11.237 12.4154C11.345 12.432 11.4537 12.443 11.5628 12.4484C13.5964 12.4484 15.6306 12.4484 17.6654 12.4484C17.5223 14.2372 16.7522 15.6701 15.2985 16.7462C12.2792 18.9832 6.42421 18.6 4.26259 13.6704C3.00949 10.813 3.37478 8.05265 5.40742 5.65378C7.41088 3.28786 10.5384 2.46218 13.3855 3.50063C14.3382 3.84803 15.1978 4.44775 16.0423 4.90154L18.025 3.04401C18.025 3.04401 17.8819 2.93763 17.8264 2.88585C14.2074 -0.467681 8.64985 -0.667273 4.58646 2.41511C-0.295082 6.12169 -0.893859 13.1262 3.32394 17.5672C5.80755 20.1816 8.89934 21.2097 12.4562 20.8143C16.401 20.3756 19.474 17.6585 20.3401 13.9058C20.6716 12.5014 20.7094 11.0437 20.4512 9.62397Z" fill="#4285F4"/>
<path d="M63.2102 8.03087H60.4715C60.4564 8.36603 60.4432 8.68048 60.4263 9.0533L59.8482 8.61457L59.1892 8.17397C57.9502 7.48387 56.6406 7.43961 55.3131 7.81338C52.7815 8.52513 50.827 10.7979 50.5653 13.3963C50.2744 16.2744 51.3712 18.5264 53.8435 20.0403C55.8629 21.2764 58.6252 21.2378 60.3208 19.4754C60.335 19.4613 60.3764 19.4754 60.415 19.4754C60.415 20.0215 60.4621 20.5694 60.4065 21.106C60.2417 22.6849 59.3982 23.7073 58.0086 24.0849C56.5258 24.4878 55.0448 24.0058 54.1419 22.8082C53.9263 22.5258 53.7531 22.2066 53.5394 21.8667L51.0501 22.9024C52.4529 26.2672 56.1247 27.6625 59.4678 26.3858L61.0269 25.4848C61.0318 25.4861 61.0368 25.4863 61.0417 25.4855C61.0467 25.4846 61.0514 25.4828 61.0555 25.48C61.0597 25.4773 61.0632 25.4737 61.0659 25.4695C61.0686 25.4653 61.0704 25.4606 61.0712 25.4556L61.1578 25.3756L61.2519 25.2815L61.5702 24.9491L61.5655 24.9378C61.8046 24.6337 62.0823 24.3522 62.2744 24.0208C62.9683 22.8242 63.2272 21.5099 63.2281 20.1382C63.2281 16.2179 63.2281 12.2973 63.2281 8.37638C63.2309 8.27282 63.2187 8.1655 63.2102 8.03087ZM60.2973 16.0682C59.659 17.6085 58.2797 18.3993 56.6613 18.227C55.1719 18.0688 53.8746 16.8383 53.5385 15.2482C53.4678 14.914 53.4443 14.5684 53.4189 14.3463C53.4744 12.7731 54.0007 11.568 55.2548 10.764C55.6257 10.5193 56.0415 10.3509 56.4781 10.2685C56.9147 10.1861 57.3634 10.1914 57.7979 10.284C58.2325 10.3766 58.6443 10.5547 59.0094 10.8079C59.3745 11.0612 59.6855 11.3845 59.9245 11.7591C60.8047 13.1186 60.913 14.5816 60.2973 16.0682Z" fill="#4285F4"/>
<path d="M65.1987 0.952148V20.4576H68.0702V0.952148H65.1987Z" fill="#0F9D58"/>
<path d="M90.6474 20.042V7.61791H95.759C96.8594 7.61791 97.8001 7.7954 98.581 8.15037C99.3738 8.50535 99.9832 9.01414 100.409 9.67676C100.835 10.3394 101.048 11.1262 101.048 12.0373C101.048 12.9484 100.835 13.7353 100.409 14.3979C99.9832 15.0487 99.3738 15.5516 98.581 15.9065C97.8001 16.2497 96.8594 16.4213 95.759 16.4213H91.9253L92.9547 15.3741V20.042H90.6474ZM98.7763 20.042L95.6348 15.5338H98.1018L101.261 20.042H98.7763ZM92.9547 15.6226L91.9253 14.5222H95.6525C96.6701 14.5222 97.4333 14.3033 97.9421 13.8654C98.4627 13.4276 98.723 12.8183 98.723 12.0373C98.723 11.2446 98.4627 10.6352 97.9421 10.2092C97.4333 9.78325 96.6701 9.57027 95.6525 9.57027H91.9253L92.9547 8.43435V15.6226ZM109.169 20.042V18.1251L109.045 17.7169V14.3624C109.045 13.7116 108.85 13.2087 108.459 12.8538C108.069 12.487 107.477 12.3036 106.684 12.3036C106.152 12.3036 105.625 12.3864 105.105 12.552C104.596 12.7177 104.164 12.9484 103.809 13.2442L102.939 11.6291C103.448 11.2386 104.052 10.9487 104.75 10.7594C105.46 10.5583 106.193 10.4577 106.951 10.4577C108.323 10.4577 109.382 10.789 110.128 11.4516C110.885 12.1024 111.264 13.1141 111.264 14.4867V20.042H109.169ZM106.187 20.1662C105.478 20.1662 104.856 20.0479 104.324 19.8113C103.791 19.5628 103.377 19.2256 103.081 18.7996C102.797 18.3618 102.655 17.8707 102.655 17.3264C102.655 16.794 102.78 16.3148 103.028 15.8888C103.289 15.4628 103.709 15.1256 104.288 14.8771C104.868 14.6286 105.637 14.5044 106.596 14.5044H109.347V15.9775H106.755C105.998 15.9775 105.489 16.1018 105.229 16.3503C104.969 16.5869 104.839 16.8827 104.839 17.2377C104.839 17.64 104.998 17.9595 105.318 18.1961C105.637 18.4328 106.081 18.5511 106.649 18.5511C107.193 18.5511 107.678 18.4269 108.104 18.1784C108.542 17.9299 108.856 17.5631 109.045 17.078L109.418 18.4091C109.205 18.9652 108.82 19.3971 108.264 19.7048C107.72 20.0124 107.028 20.1662 106.187 20.1662ZM117.678 20.1662C116.637 20.1662 115.832 19.9 115.265 19.3675C114.697 18.8232 114.413 18.0246 114.413 16.9715V8.46985H116.631V16.9182C116.631 17.3679 116.744 17.7169 116.968 17.9654C117.205 18.2139 117.53 18.3381 117.945 18.3381C118.442 18.3381 118.856 18.208 119.187 17.9476L119.808 19.5273C119.548 19.7403 119.228 19.9 118.85 20.0065C118.471 20.113 118.081 20.1662 117.678 20.1662ZM112.851 12.4101V10.6352H119.169V12.4101H112.851ZM121.633 20.042V10.5642H123.852V20.042H121.633ZM122.751 9.00231C122.337 9.00231 121.994 8.87215 121.722 8.61184C121.462 8.35152 121.332 8.03796 121.332 7.67116C121.332 7.29252 121.462 6.97896 121.722 6.73048C121.994 6.47016 122.337 6.34001 122.751 6.34001C123.166 6.34001 123.503 6.46425 123.763 6.71273C124.035 6.94938 124.171 7.25111 124.171 7.61791C124.171 8.00838 124.041 8.33969 123.781 8.61184C123.521 8.87215 123.177 9.00231 122.751 9.00231ZM132.142 10.4577C132.899 10.4577 133.573 10.6056 134.165 10.9014C134.768 11.1972 135.242 11.6528 135.585 12.2681C135.928 12.8715 136.1 13.6525 136.1 14.6109V20.042H133.881V14.8949C133.881 14.0548 133.68 13.4276 133.278 13.0135C132.887 12.5994 132.337 12.3923 131.627 12.3923C131.106 12.3923 130.645 12.4988 130.242 12.7118C129.84 12.9248 129.527 13.2442 129.302 13.6702C129.089 14.0843 128.982 14.6109 128.982 15.2498V20.042H126.764V10.5642H128.876V13.12L128.503 12.3391C128.834 11.7356 129.314 11.2741 129.941 10.9547C130.58 10.6234 131.313 10.4577 132.142 10.4577ZM143.226 23.6095C142.351 23.6095 141.493 23.4912 140.653 23.2545C139.825 23.0297 139.144 22.6984 138.612 22.2606L139.606 20.5922C140.02 20.9353 140.541 21.2075 141.168 21.4086C141.807 21.6216 142.451 21.7281 143.102 21.7281C144.143 21.7281 144.907 21.4856 145.392 21.0004C145.877 20.5271 146.12 19.8113 146.12 18.8528V17.1667L146.297 15.0191L146.226 12.8715V10.5642H148.338V18.6043C148.338 20.3201 147.9 21.5802 147.025 22.3848C146.149 23.2013 144.883 23.6095 143.226 23.6095ZM142.942 19.616C142.043 19.616 141.227 19.4267 140.493 19.0481C139.771 18.6576 139.198 18.1192 138.772 17.4329C138.357 16.7467 138.15 15.942 138.15 15.0191C138.15 14.108 138.357 13.3093 138.772 12.623C139.198 11.9368 139.771 11.4043 140.493 11.0257C141.227 10.647 142.043 10.4577 142.942 10.4577C143.747 10.4577 144.469 10.6174 145.108 10.9369C145.747 11.2564 146.256 11.7534 146.634 12.4278C147.025 13.1023 147.22 13.966 147.22 15.0191C147.22 16.0722 147.025 16.9419 146.634 17.6282C146.256 18.3026 145.747 18.8055 145.108 19.1368C144.469 19.4563 143.747 19.616 142.942 19.616ZM143.28 17.7347C143.836 17.7347 144.333 17.6223 144.771 17.3974C145.208 17.1608 145.546 16.8413 145.782 16.439C146.031 16.0249 146.155 15.5516 146.155 15.0191C146.155 14.4867 146.031 14.0193 145.782 13.617C145.546 13.2028 145.208 12.8893 144.771 12.6763C144.333 12.4515 143.836 12.3391 143.28 12.3391C142.724 12.3391 142.221 12.4515 141.771 12.6763C141.333 12.8893 140.99 13.2028 140.742 13.617C140.505 14.0193 140.387 14.4867 140.387 15.0191C140.387 15.5516 140.505 16.0249 140.742 16.439C140.99 16.8413 141.333 17.1608 141.771 17.3974C142.221 17.6223 142.724 17.7347 143.28 17.7347Z" fill="#FBFBFB"/>
<path d="M1.11078 46.9475V45.3501L7.23408 37.3455H9.70114L3.66659 45.3501L2.51293 44.9951H12.3634V46.9475H1.11078ZM7.92628 49.7695V46.9475L7.99727 44.9951V42.4926H10.1626V49.7695H7.92628ZM15.0655 49.8938C14.6632 49.8938 14.3201 49.7577 14.0361 49.4856C13.7521 49.2016 13.6102 48.8466 13.6102 48.4206C13.6102 47.971 13.7521 47.616 14.0361 47.3557C14.3201 47.0836 14.6632 46.9475 15.0655 46.9475C15.4678 46.9475 15.811 47.0836 16.095 47.3557C16.3789 47.616 16.5209 47.971 16.5209 48.4206C16.5209 48.8466 16.3789 49.2016 16.095 49.4856C15.811 49.7577 15.4678 49.8938 15.0655 49.8938ZM19.8309 49.7695L24.9603 38.2684L25.5638 39.2978H18.5175L19.6179 38.1796V41.4099H17.4704V37.3455H27.1256V38.8896L22.298 49.7695H19.8309Z" fill="#FBFBFB"/>
<path d="M48.3423 41.6784C48.2902 41.5146 48.1899 41.3704 48.0544 41.2646C47.9189 41.1588 47.7546 41.0965 47.5831 41.0857L44.4944 40.8725L43.3505 37.9866C43.288 37.8277 43.1793 37.6912 43.0384 37.5948C42.8974 37.4984 42.7308 37.4465 42.5601 37.4458C42.3894 37.4465 42.2227 37.4984 42.0818 37.5948C41.9409 37.6912 41.8322 37.8277 41.7697 37.9866L40.605 40.8881L37.5371 41.0857C37.3657 41.0972 37.2018 41.1598 37.0665 41.2655C36.9311 41.3712 36.8306 41.515 36.7779 41.6784C36.7238 41.8444 36.7206 42.0227 36.7688 42.1905C36.817 42.3582 36.9144 42.5077 37.0483 42.6196L39.409 44.6163L38.707 47.3774C38.6585 47.5642 38.6672 47.7613 38.7321 47.9431C38.797 48.1248 38.9151 48.2828 39.071 48.3966C39.2223 48.5052 39.4026 48.5662 39.5888 48.5718C39.775 48.5773 39.9586 48.5272 40.1162 48.4278L42.5549 46.8835H42.5653L45.1912 48.5422C45.3259 48.6297 45.4829 48.6767 45.6436 48.6774C45.7747 48.6764 45.9039 48.6453 46.0212 48.5865C46.1385 48.5277 46.2407 48.4429 46.32 48.3384C46.3994 48.234 46.4537 48.1127 46.4789 47.984C46.504 47.8553 46.4993 47.7225 46.4651 47.5958L45.7216 44.5747L48.0719 42.6196C48.2058 42.5077 48.3032 42.3582 48.3514 42.1905C48.3996 42.0227 48.3964 41.8444 48.3423 41.6784Z" fill="#FFC700"/>
<path d="M64.6118 41.6784C64.5597 41.5146 64.4594 41.3704 64.3239 41.2646C64.1885 41.1588 64.0242 41.0965 63.8526 41.0857L60.764 40.8725L59.62 37.9866C59.5575 37.8277 59.4488 37.6912 59.3079 37.5948C59.167 37.4984 59.0004 37.4465 58.8296 37.4458C58.6589 37.4465 58.4923 37.4984 58.3514 37.5948C58.2104 37.6912 58.1017 37.8277 58.0393 37.9866L56.8745 40.8881L53.8066 41.0857C53.6353 41.0972 53.4713 41.1598 53.336 41.2655C53.2006 41.3712 53.1001 41.515 53.0474 41.6784C52.9933 41.8444 52.9902 42.0227 53.0384 42.1905C53.0866 42.3582 53.1839 42.5077 53.3178 42.6196L55.6785 44.6163L54.9766 47.3774C54.928 47.5642 54.9367 47.7613 55.0016 47.9431C55.0666 48.1248 55.1846 48.2828 55.3405 48.3966C55.4919 48.5052 55.6722 48.5662 55.8584 48.5718C56.0446 48.5773 56.2282 48.5272 56.3857 48.4278L58.8244 46.8835H58.8348L61.4607 48.5422C61.5954 48.6297 61.7525 48.6767 61.9131 48.6774C62.0443 48.6764 62.1735 48.6453 62.2907 48.5865C62.408 48.5277 62.5102 48.4429 62.5896 48.3384C62.6689 48.234 62.7233 48.1127 62.7484 47.984C62.7736 47.8553 62.7689 47.7225 62.7347 47.5958L61.9911 44.5747L64.3414 42.6196C64.4754 42.5077 64.5727 42.3582 64.6209 42.1905C64.6691 42.0227 64.6659 41.8444 64.6118 41.6784Z" fill="#FFC700"/>
<path d="M80.8813 41.6784C80.8293 41.5146 80.7289 41.3704 80.5935 41.2646C80.458 41.1588 80.2937 41.0965 80.1222 41.0857L77.0335 40.8725L75.8895 37.9866C75.8271 37.8277 75.7183 37.6912 75.5774 37.5948C75.4365 37.4984 75.2699 37.4465 75.0992 37.4458C74.9284 37.4465 74.7618 37.4984 74.6209 37.5948C74.48 37.6912 74.3712 37.8277 74.3088 37.9866L73.144 40.8881L70.0761 41.0857C69.9048 41.0972 69.7409 41.1598 69.6055 41.2655C69.4702 41.3712 69.3697 41.515 69.317 41.6784C69.2629 41.8444 69.2597 42.0227 69.3079 42.1905C69.3561 42.3582 69.4534 42.5077 69.5874 42.6196L71.9481 44.6163L71.2461 47.3774C71.1975 47.5642 71.2063 47.7613 71.2712 47.9431C71.3361 48.1248 71.4542 48.2828 71.6101 48.3966C71.7614 48.5052 71.9417 48.5662 72.1279 48.5718C72.3141 48.5773 72.4977 48.5272 72.6552 48.4278L75.094 46.8835H75.1044L77.7303 48.5422C77.865 48.6297 78.022 48.6767 78.1826 48.6774C78.3138 48.6764 78.443 48.6453 78.5603 48.5865C78.6775 48.5277 78.7798 48.4429 78.8591 48.3384C78.9384 48.234 78.9928 48.1127 79.0179 47.984C79.0431 47.8553 79.0384 47.7225 79.0042 47.5958L78.2606 44.5747L80.611 42.6196C80.7449 42.5077 80.8422 42.3582 80.8904 42.1905C80.9386 42.0227 80.9355 41.8444 80.8813 41.6784Z" fill="#FFC700"/>
<path d="M97.1514 41.6784C97.0993 41.5146 96.999 41.3704 96.8635 41.2646C96.728 41.1588 96.5637 41.0965 96.3922 41.0857L93.3035 40.8725L92.1595 37.9866C92.0971 37.8277 91.9884 37.6912 91.8474 37.5948C91.7065 37.4984 91.5399 37.4465 91.3692 37.4458C91.1984 37.4465 91.0318 37.4984 90.8909 37.5948C90.75 37.6912 90.6413 37.8277 90.5788 37.9866L89.414 40.8881L86.3462 41.0857C86.1748 41.0972 86.0109 41.1598 85.8755 41.2655C85.7402 41.3712 85.6397 41.515 85.587 41.6784C85.5329 41.8444 85.5297 42.0227 85.5779 42.1905C85.6261 42.3582 85.7234 42.5077 85.8574 42.6196L88.2181 44.6163L87.5161 47.3774C87.4675 47.5642 87.4763 47.7613 87.5412 47.9431C87.6061 48.1248 87.7242 48.2828 87.8801 48.3966C88.0314 48.5052 88.2117 48.5662 88.3979 48.5718C88.5841 48.5773 88.7677 48.5272 88.9253 48.4278L91.364 46.8835H91.3744L94.0003 48.5422C94.135 48.6297 94.292 48.6767 94.4527 48.6774C94.5838 48.6764 94.713 48.6453 94.8303 48.5865C94.9475 48.5277 95.0498 48.4429 95.1291 48.3384C95.2085 48.234 95.2628 48.1127 95.288 47.984C95.3131 47.8553 95.3084 47.7225 95.2742 47.5958L94.5307 44.5747L96.881 42.6196C97.0149 42.5077 97.1122 42.3582 97.1604 42.1905C97.2086 42.0227 97.2055 41.8444 97.1514 41.6784Z" fill="#FFC700"/>
<path d="M113.733 41.6784C113.681 41.5146 113.58 41.3704 113.445 41.2646C113.31 41.1588 113.145 41.0965 112.974 41.0857L109.885 40.8725L108.741 37.9866C108.679 37.8277 108.57 37.6912 108.429 37.5948C108.288 37.4984 108.121 37.4465 107.951 37.4458C107.78 37.4465 107.613 37.4984 107.472 37.5948C107.332 37.6912 107.223 37.8277 107.16 37.9866L105.996 40.8881L102.928 41.0857C102.756 41.0972 102.592 41.1598 102.457 41.2655C102.322 41.3712 102.221 41.515 102.169 41.6784C102.114 41.8444 102.111 42.0227 102.159 42.1905C102.208 42.3582 102.305 42.5077 102.439 42.6196L104.8 44.6163L104.098 47.3774C104.049 47.5642 104.058 47.7613 104.123 47.9431C104.188 48.1248 104.306 48.2828 104.462 48.3966C104.613 48.5052 104.793 48.5662 104.979 48.5718C105.166 48.5773 105.349 48.5272 105.507 48.4278L107.946 46.8835H107.956L110.582 48.5422C110.717 48.6297 110.874 48.6767 111.034 48.6774C111.165 48.6764 111.295 48.6453 111.412 48.5865C111.529 48.5277 111.631 48.4429 111.711 48.3384C111.79 48.234 111.844 48.1127 111.87 47.984C111.895 47.8553 111.89 47.7225 111.856 47.5958L111.112 44.5747L113.463 42.6196C113.596 42.5077 113.694 42.3582 113.742 42.1905C113.79 42.0227 113.787 41.8444 113.733 41.6784Z" fill="#FFC700" fill-opacity="0.42"/>
<path d="M104.421 44.6293L102.372 42.5802C101.832 42.0399 102.181 41.1147 102.944 41.067L105.506 40.9069C105.792 40.889 106.041 40.7086 106.147 40.4434L106.597 39.3177L107.221 37.8618C107.325 37.6538 107.533 37.4458 107.949 37.4458C108.118 37.4458 108.577 37.4458 108.956 38.5533C108.979 38.6198 108.99 38.69 108.992 38.7603L109.197 47.6634L107.949 46.9095L105.351 48.5083C105.281 48.5514 105.205 48.5841 105.123 48.5948C104.665 48.6552 103.958 48.5342 103.993 47.6499C103.995 47.6035 104.004 47.5571 104.016 47.5123L104.611 45.3484C104.682 45.0919 104.609 44.8174 104.421 44.6293Z" fill="#FFC700"/>
<path d="M124.077 48.2695V39.617L124.835 40.4024H122.106V38.9515H125.807V48.2695H124.077ZM127.722 50.2796L128.494 47.3377L128.72 48.3228C128.41 48.3228 128.148 48.2296 127.935 48.0432C127.731 47.848 127.629 47.5862 127.629 47.2579C127.629 46.9206 127.731 46.6544 127.935 46.4592C128.148 46.2551 128.405 46.153 128.707 46.153C129.018 46.153 129.275 46.2551 129.479 46.4592C129.683 46.6633 129.785 46.9295 129.785 47.2579C129.785 47.3466 129.776 47.4442 129.759 47.5507C129.741 47.6483 129.71 47.7637 129.666 47.8968C129.63 48.0299 129.568 48.1985 129.479 48.4026L128.8 50.2796H127.722ZM134.636 48.4026C133.9 48.4026 133.234 48.2163 132.64 47.8436C132.054 47.4708 131.592 46.9295 131.255 46.2196C130.918 45.5007 130.749 44.6311 130.749 43.6105C130.749 42.59 130.918 41.7247 131.255 41.0148C131.592 40.2959 132.054 39.7502 132.64 39.3774C133.234 39.0047 133.9 38.8184 134.636 38.8184C135.382 38.8184 136.047 39.0047 136.633 39.3774C137.219 39.7502 137.68 40.2959 138.017 41.0148C138.364 41.7247 138.537 42.59 138.537 43.6105C138.537 44.6311 138.364 45.5007 138.017 46.2196C137.68 46.9295 137.219 47.4708 136.633 47.8436C136.047 48.2163 135.382 48.4026 134.636 48.4026ZM134.636 46.8984C135.071 46.8984 135.448 46.7831 135.768 46.5523C136.087 46.3127 136.336 45.9489 136.513 45.4608C136.7 44.9727 136.793 44.3559 136.793 43.6105C136.793 42.8562 136.7 42.2394 136.513 41.7602C136.336 41.2721 136.087 40.9127 135.768 40.682C135.448 40.4424 135.071 40.3226 134.636 40.3226C134.219 40.3226 133.847 40.4424 133.518 40.682C133.199 40.9127 132.946 41.2721 132.759 41.7602C132.582 42.2394 132.493 42.8562 132.493 43.6105C132.493 44.3559 132.582 44.9727 132.759 45.4608C132.946 45.9489 133.199 46.3127 133.518 46.5523C133.847 46.7831 134.219 46.8984 134.636 46.8984ZM141.184 48.2695V39.617L141.943 40.4024H139.214V38.9515H142.914V48.2695H141.184ZM146.254 48.2695V39.617L147.013 40.4024H144.284V38.9515H147.984V48.2695H146.254ZM154.017 48.2695V41.1612H155.601V43.118L155.415 42.5456C155.628 42.0664 155.961 41.7025 156.413 41.454C156.875 41.2056 157.447 41.0813 158.131 41.0813V42.6654C158.06 42.6476 157.993 42.6388 157.931 42.6388C157.869 42.6299 157.807 42.6254 157.745 42.6254C157.115 42.6254 156.613 42.8118 156.24 43.1845C155.868 43.5484 155.681 44.0942 155.681 44.8218V48.2695H154.017ZM162.818 48.3627C162.029 48.3627 161.336 48.2074 160.742 47.8968C160.156 47.5773 159.699 47.1425 159.371 46.5923C159.051 46.0421 158.892 45.4164 158.892 44.7154C158.892 44.0054 159.047 43.3798 159.357 42.8384C159.677 42.2882 160.112 41.8578 160.662 41.5472C161.221 41.2366 161.856 41.0813 162.565 41.0813C163.258 41.0813 163.874 41.2322 164.416 41.5339C164.957 41.8356 165.383 42.2616 165.694 42.8118C166.004 43.362 166.16 44.0098 166.16 44.7553C166.16 44.8263 166.155 44.9062 166.146 44.9949C166.146 45.0836 166.142 45.1679 166.133 45.2478H160.209V44.143H165.254L164.602 44.4891C164.611 44.0808 164.527 43.7214 164.349 43.4108C164.172 43.1002 163.928 42.8562 163.617 42.6787C163.315 42.5012 162.965 42.4125 162.565 42.4125C162.157 42.4125 161.798 42.5012 161.487 42.6787C161.186 42.8562 160.946 43.1047 160.768 43.4241C160.6 43.7347 160.516 44.103 160.516 44.529V44.7952C160.516 45.2212 160.613 45.5984 160.808 45.9267C161.004 46.2551 161.279 46.508 161.634 46.6855C161.989 46.8629 162.397 46.9517 162.858 46.9517C163.258 46.9517 163.617 46.8896 163.937 46.7653C164.256 46.6411 164.54 46.4459 164.789 46.1796L165.68 47.2046C165.361 47.5773 164.957 47.8657 164.469 48.0699C163.99 48.2651 163.44 48.3627 162.818 48.3627ZM169.518 48.2695L166.47 41.1612H168.2L170.823 47.4309H169.971L172.686 41.1612H174.284L171.235 48.2695H169.518ZM175.324 48.2695V41.1612H176.988V48.2695H175.324ZM176.162 39.9898C175.852 39.9898 175.594 39.8922 175.39 39.6969C175.195 39.5017 175.097 39.2665 175.097 38.9914C175.097 38.7074 175.195 38.4723 175.39 38.2859C175.594 38.0907 175.852 37.993 176.162 37.993C176.473 37.993 176.726 38.0862 176.921 38.2726C177.125 38.4501 177.227 38.6764 177.227 38.9515C177.227 39.2443 177.13 39.4928 176.934 39.6969C176.739 39.8922 176.482 39.9898 176.162 39.9898ZM182.513 48.3627C181.723 48.3627 181.031 48.2074 180.436 47.8968C179.85 47.5773 179.393 47.1425 179.065 46.5923C178.746 46.0421 178.586 45.4164 178.586 44.7154C178.586 44.0054 178.741 43.3798 179.052 42.8384C179.371 42.2882 179.806 41.8578 180.356 41.5472C180.915 41.2366 181.55 41.0813 182.26 41.0813C182.952 41.0813 183.569 41.2322 184.11 41.5339C184.651 41.8356 185.077 42.2616 185.388 42.8118C185.699 43.362 185.854 44.0098 185.854 44.7553C185.854 44.8263 185.849 44.9062 185.841 44.9949C185.841 45.0836 185.836 45.1679 185.827 45.2478H179.904V44.143H184.949L184.296 44.4891C184.305 44.0808 184.221 43.7214 184.044 43.4108C183.866 43.1002 183.622 42.8562 183.311 42.6787C183.01 42.5012 182.659 42.4125 182.26 42.4125C181.852 42.4125 181.492 42.5012 181.182 42.6787C180.88 42.8562 180.64 43.1047 180.463 43.4241C180.294 43.7347 180.21 44.103 180.21 44.529V44.7952C180.21 45.2212 180.307 45.5984 180.503 45.9267C180.698 46.2551 180.973 46.508 181.328 46.6855C181.683 46.8629 182.091 46.9517 182.553 46.9517C182.952 46.9517 183.311 46.8896 183.631 46.7653C183.95 46.6411 184.234 46.4459 184.483 46.1796L185.375 47.2046C185.055 47.5773 184.651 47.8657 184.163 48.0699C183.684 48.2651 183.134 48.3627 182.513 48.3627ZM188.893 48.2695L186.284 41.1612H187.855L190.091 47.4309H189.346L191.688 41.1612H193.086L195.362 47.4309H194.63L196.933 41.1612H198.411L195.788 48.2695H194.191L192.114 42.7186H192.607L190.49 48.2695H188.893ZM201.66 48.3627C201.066 48.3627 200.493 48.2873 199.943 48.1364C199.402 47.9767 198.971 47.7859 198.652 47.564L199.291 46.2994C199.61 46.5035 199.992 46.6721 200.436 46.8053C200.879 46.9384 201.323 47.0049 201.767 47.0049C202.29 47.0049 202.667 46.9339 202.898 46.792C203.138 46.65 203.258 46.4592 203.258 46.2196C203.258 46.0243 203.178 45.8779 203.018 45.7803C202.858 45.6738 202.65 45.5939 202.392 45.5407C202.135 45.4874 201.847 45.4386 201.527 45.3942C201.216 45.3499 200.901 45.2922 200.582 45.2212C200.271 45.1413 199.987 45.0304 199.73 44.8884C199.473 44.7375 199.264 44.5379 199.104 44.2894C198.945 44.0409 198.865 43.7126 198.865 43.3043C198.865 42.8517 198.993 42.4613 199.251 42.1329C199.508 41.7957 199.868 41.5383 200.329 41.3609C200.799 41.1745 201.354 41.0813 201.993 41.0813C202.472 41.0813 202.956 41.1346 203.444 41.2411C203.932 41.3475 204.336 41.4984 204.655 41.6936L204.016 42.9582C203.679 42.7541 203.337 42.6166 202.991 42.5456C202.654 42.4657 202.317 42.4258 201.98 42.4258C201.474 42.4258 201.097 42.5012 200.848 42.6521C200.609 42.8029 200.489 42.9937 200.489 43.2245C200.489 43.4375 200.569 43.5972 200.728 43.7037C200.888 43.8102 201.097 43.8945 201.354 43.9566C201.611 44.0187 201.895 44.072 202.206 44.1163C202.525 44.1518 202.84 44.2095 203.151 44.2894C203.462 44.3693 203.746 44.4802 204.003 44.6222C204.269 44.7553 204.482 44.9461 204.642 45.1946C204.802 45.4431 204.882 45.767 204.882 46.1663C204.882 46.61 204.748 46.9961 204.482 47.3244C204.225 47.6528 203.857 47.9101 203.377 48.0965C202.898 48.274 202.326 48.3627 201.66 48.3627Z" fill="#FBFBFB"/>
</svg>
