<svg width="65" height="64" viewBox="0 0 65 64" fill="none" xmlns="http://www.w3.org/2000/svg">
<g id="Headset">
<path id="Vector" d="M50.8055 13.665C48.413 11.2484 45.5674 9.32754 42.4315 8.01227C39.2956 6.69699 35.931 6.01319 32.5305 6H32.333C25.4374 6 18.8242 8.73928 13.9482 13.6152C9.07229 18.4912 6.33301 25.1044 6.33301 32V46C6.33301 47.5913 6.96515 49.1174 8.09037 50.2426C9.21559 51.3679 10.7417 52 12.333 52H16.333C17.9243 52 19.4504 51.3679 20.5756 50.2426C21.7009 49.1174 22.333 47.5913 22.333 46V36C22.333 34.4087 21.7009 32.8826 20.5756 31.7574C19.4504 30.6321 17.9243 30 16.333 30H10.423C10.8087 25.8298 12.3751 21.856 14.9386 18.5443C17.502 15.2325 20.9564 12.7201 24.8968 11.3014C28.8371 9.88275 33.1002 9.61663 37.1864 10.5343C41.2726 11.4519 45.0126 13.5153 47.968 16.4825C51.5802 20.1133 53.8021 24.8977 54.2455 30H48.333C46.7417 30 45.2156 30.6321 44.0904 31.7574C42.9651 32.8826 42.333 34.4087 42.333 36V46C42.333 47.5913 42.9651 49.1174 44.0904 50.2426C45.2156 51.3679 46.7417 52 48.333 52H54.333C54.333 53.5913 53.7009 55.1174 52.5756 56.2426C51.4504 57.3679 49.9243 58 48.333 58H34.333C33.8026 58 33.2939 58.2107 32.9188 58.5858C32.5437 58.9609 32.333 59.4696 32.333 60C32.333 60.5304 32.5437 61.0391 32.9188 61.4142C33.2939 61.7893 33.8026 62 34.333 62H48.333C50.9852 62 53.5287 60.9464 55.4041 59.0711C57.2794 57.1957 58.333 54.6522 58.333 52V32C58.346 28.5989 57.6878 25.2287 56.3961 22.0825C55.1044 18.9362 53.2046 16.0758 50.8055 13.665ZM16.333 34C16.8634 34 17.3721 34.2107 17.7472 34.5858C18.1223 34.9609 18.333 35.4696 18.333 36V46C18.333 46.5304 18.1223 47.0391 17.7472 47.4142C17.3721 47.7893 16.8634 48 16.333 48H12.333C11.8026 48 11.2939 47.7893 10.9188 47.4142C10.5437 47.0391 10.333 46.5304 10.333 46V34H16.333ZM48.333 48C47.8026 48 47.2939 47.7893 46.9188 47.4142C46.5437 47.0391 46.333 46.5304 46.333 46V36C46.333 35.4696 46.5437 34.9609 46.9188 34.5858C47.2939 34.2107 47.8026 34 48.333 34H54.333V48H48.333Z" fill="#2E7BB2"/>
</g>
</svg>
