<svg width="65" height="64" viewBox="0 0 65 64" fill="none" xmlns="http://www.w3.org/2000/svg">
<g id="HouseLine">
<path id="Vector" d="M60.6665 52H56.6665V28.8875C56.6666 28.3339 56.5518 27.7863 56.3293 27.2794C56.1068 26.7725 55.7815 26.3172 55.374 25.9425L35.374 7.07252C35.3642 7.06399 35.355 7.0548 35.3465 7.04502C34.6101 6.37535 33.6506 6.00427 32.6553 6.00427C31.6599 6.00427 30.7004 6.37535 29.964 7.04502L29.9365 7.07252L9.959 25.9425C9.5515 26.3172 9.22621 26.7725 9.00373 27.2794C8.78125 27.7863 8.66642 28.3339 8.6665 28.8875V52H4.6665C4.13607 52 3.62736 52.2107 3.25229 52.5858C2.87722 52.9609 2.6665 53.4696 2.6665 54C2.6665 54.5305 2.87722 55.0392 3.25229 55.4142C3.62736 55.7893 4.13607 56 4.6665 56H60.6665C61.1969 56 61.7056 55.7893 62.0807 55.4142C62.4558 55.0392 62.6665 54.5305 62.6665 54C62.6665 53.4696 62.4558 52.9609 62.0807 52.5858C61.7056 52.2107 61.1969 52 60.6665 52ZM12.6665 28.8875L12.694 28.8625L32.6665 10L52.6415 28.8575L52.669 28.8825V52H40.6665V40C40.6665 38.9392 40.2451 37.9217 39.4949 37.1716C38.7448 36.4214 37.7274 36 36.6665 36H28.6665C27.6056 36 26.5882 36.4214 25.8381 37.1716C25.0879 37.9217 24.6665 38.9392 24.6665 40V52H12.6665V28.8875ZM36.6665 52H28.6665V40H36.6665V52Z" fill="#2E7BB2"/>
</g>
</svg>
