<svg width="201" height="48" viewBox="0 0 201 48" fill="none" xmlns="http://www.w3.org/2000/svg">
<g id="Group">
<path id="Vector" d="M94.9038 26.0734H85.7677V22.5461H93.6962V19.2412H85.7677V15.8251H94.7926V12.5361H82.0815V29.3782H94.9038V26.0734Z" fill="#A41C35"/>
<path id="Vector_2" d="M124.806 12.2344C119.611 12.2344 115.829 16.1589 115.829 20.9414V20.9891C115.829 25.7716 119.563 29.6485 124.759 29.6485C129.954 29.6485 133.736 25.7239 133.736 20.9414V20.8938C133.736 16.1112 130.002 12.2344 124.806 12.2344ZM129.859 21.005C129.859 23.8967 127.793 26.2483 124.806 26.2483C121.819 26.2483 119.706 23.8491 119.706 20.9573V20.9096C119.706 18.0179 121.772 15.6663 124.759 15.6663C127.746 15.6663 129.859 18.0656 129.859 20.9573V21.005Z" fill="#A41C35"/>
<path id="Vector_3" d="M134.435 15.9522H139.551V29.3783H143.269V15.9522H148.385V12.5203H134.435V15.9522Z" fill="#A41C35"/>
<path id="Vector_4" d="M175.237 29.6643C178.494 29.6643 180.417 28.5045 182.149 26.6614L179.797 24.278C178.479 25.4856 177.287 26.2483 175.364 26.2483C172.473 26.2483 170.487 23.8491 170.487 20.9573V20.9096C170.487 18.0179 172.536 15.6663 175.364 15.6663C177.049 15.6663 178.367 16.3813 179.67 17.573L182.022 14.856C180.465 13.3148 178.558 12.2502 175.38 12.2502C170.216 12.2502 166.594 16.1748 166.594 20.9573V21.005C166.594 25.8352 170.28 29.6643 175.237 29.6643Z" fill="#A41C35"/>
<path id="Vector_5" d="M193.033 19.6702L199.881 12.5361H195.416L188.584 19.8926V12.5361H184.866V29.3782H188.584V24.2303L190.522 22.1965L195.75 29.3782H200.198L193.033 19.6702Z" fill="#A41C35"/>
<path id="Vector_6" d="M98.5901 35.5432C98.5901 35.0348 98.4312 34.6216 98.1452 34.3198C97.7957 33.9702 97.2872 33.7795 96.6199 33.7795H94.2207V39.0387H95.3806V37.3545H96.2862L97.4143 39.0387H98.7649L97.4779 37.1638C98.1293 36.9255 98.5901 36.3853 98.5901 35.5432ZM97.4143 35.6068C97.4143 36.0516 97.0966 36.3535 96.5246 36.3535H95.3488V34.8441H96.4928C97.0648 34.8441 97.4143 35.0983 97.4143 35.6068Z" fill="#2E7BB2"/>
<path id="Vector_7" d="M102.467 33.7002C100.846 33.7002 99.6704 34.9236 99.6704 36.4172V36.4331C99.6704 37.9266 100.83 39.1342 102.451 39.1342C104.072 39.1342 105.247 37.9107 105.247 36.4172V36.4013C105.247 34.9077 104.087 33.7002 102.467 33.7002ZM104.04 36.4331C104.04 37.3387 103.388 38.0696 102.467 38.0696C101.545 38.0696 100.878 37.3228 100.878 36.4172V36.4013C100.878 35.4956 101.529 34.7647 102.451 34.7647C103.388 34.7647 104.04 35.5274 104.04 36.4331Z" fill="#2E7BB2"/>
<path id="Vector_8" d="M108.997 33.7002C107.376 33.7002 106.201 34.9236 106.201 36.4172V36.4331C106.201 37.9266 107.361 39.1342 108.981 39.1342C110.602 39.1342 111.778 37.9107 111.778 36.4172V36.4013C111.778 34.9077 110.618 33.7002 108.997 33.7002ZM110.57 36.4331C110.57 37.3387 109.919 38.0696 108.997 38.0696C108.06 38.0696 107.408 37.3228 107.408 36.4172V36.4013C107.408 35.4956 108.06 34.7647 108.981 34.7647C109.919 34.7647 110.57 35.5274 110.57 36.4331Z" fill="#2E7BB2"/>
<path id="Vector_9" d="M113.128 39.0546H114.288V37.0208H116.798V35.9722H114.288V34.8441H117.132V33.7954H113.128V39.0546Z" fill="#2E7BB2"/>
<path id="Vector_10" d="M119.658 33.7954H118.499V39.0546H119.658V33.7954Z" fill="#2E7BB2"/>
<path id="Vector_11" d="M124.87 37.0367L122.407 33.7954H121.343V39.0546H122.487V35.7021L125.029 39.0546H126.014V33.7954H124.87V37.0367Z" fill="#2E7BB2"/>
<path id="Vector_12" d="M130.145 37.0209H131.305V37.7677C131.019 37.9743 130.638 38.0855 130.225 38.0855C129.287 38.0855 128.636 37.3864 128.636 36.4172V36.4013C128.636 35.5115 129.303 34.7647 130.145 34.7647C130.749 34.7647 131.114 34.9554 131.528 35.3049L132.258 34.4311C131.702 33.9703 131.13 33.7161 130.193 33.7161C128.604 33.7161 127.428 34.9395 127.428 36.433V36.4489C127.428 38.006 128.556 39.15 130.193 39.15C131.162 39.15 131.893 38.7687 132.433 38.3238V36.0358H130.145V37.0209Z" fill="#2E7BB2"/>
<path id="Vector_13" d="M138.852 34.5422H137.788V35.8928H136.437V36.9256H137.788V38.2761H138.852V36.9256H140.219V35.8928H138.852V34.5422Z" fill="#2E7BB2"/>
<path id="Vector_14" d="M145.509 36.9255H147.988V35.8927H145.509V34.8282H148.337V33.7954H144.365V39.0546H148.369V38.0218H145.509V36.9255Z" fill="#2E7BB2"/>
<path id="Vector_15" d="M154.344 33.7954H153.025L151.897 35.4955L150.8 33.7954H149.45L151.213 36.3853L149.386 39.0546H150.689L151.881 37.2433L153.057 39.0546H154.407L152.58 36.3694L154.344 33.7954Z" fill="#2E7BB2"/>
<path id="Vector_16" d="M155.281 34.86H156.886V39.0546H158.03V34.86H159.635V33.7954H155.281V34.86Z" fill="#2E7BB2"/>
<path id="Vector_17" d="M162.05 36.9255H164.528V35.8927H162.05V34.8282H164.862V33.7954H160.906V39.0546H164.91V38.0218H162.05V36.9255Z" fill="#2E7BB2"/>
<path id="Vector_18" d="M170.693 35.5432C170.693 35.0348 170.534 34.6216 170.248 34.3198C169.899 33.9702 169.39 33.7795 168.723 33.7795H166.324V39.0387H167.484V37.3545H168.389L169.517 39.0387H170.868L169.581 37.1638C170.232 36.9255 170.693 36.3853 170.693 35.5432ZM169.533 35.6068C169.533 36.0516 169.215 36.3535 168.643 36.3535H167.468V34.8441H168.612C169.184 34.8441 169.533 35.0983 169.533 35.6068Z" fill="#2E7BB2"/>
<path id="Vector_19" d="M173.331 33.7954H172.171V39.0546H173.331V33.7954Z" fill="#2E7BB2"/>
<path id="Vector_20" d="M177.335 33.7002C175.714 33.7002 174.538 34.9236 174.538 36.4172V36.4331C174.538 37.9266 175.698 39.1342 177.319 39.1342C178.939 39.1342 180.115 37.9107 180.115 36.4172V36.4013C180.115 34.9077 178.955 33.7002 177.335 33.7002ZM178.907 36.4331C178.907 37.3387 178.256 38.0696 177.335 38.0696C176.397 38.0696 175.746 37.3228 175.746 36.4172V36.4013C175.746 35.4956 176.397 34.7647 177.319 34.7647C178.256 34.7647 178.907 35.5274 178.907 36.4331Z" fill="#2E7BB2"/>
<path id="Vector_21" d="M185.708 35.5432C185.708 35.0348 185.549 34.6216 185.263 34.3198C184.914 33.9702 184.405 33.7795 183.738 33.7795H181.339V39.0387H182.499V37.3545H183.404L184.533 39.0387H185.883L184.596 37.1638C185.248 36.9255 185.708 36.3853 185.708 35.5432ZM184.533 35.6068C184.533 36.0516 184.215 36.3535 183.643 36.3535H182.467V34.8441H183.611C184.183 34.8441 184.533 35.0983 184.533 35.6068Z" fill="#2E7BB2"/>
<path id="Vector_22" d="M189.267 35.9087C188.362 35.6704 188.139 35.5592 188.139 35.2096V35.1937C188.139 34.9395 188.377 34.733 188.822 34.733C189.267 34.733 189.728 34.9236 190.189 35.2414L190.793 34.3675C190.252 33.9385 189.601 33.7002 188.838 33.7002C187.758 33.7002 186.995 34.3357 186.995 35.2891V35.305C186.995 36.3536 187.678 36.6396 188.743 36.9097C189.617 37.1322 189.807 37.2911 189.807 37.5771V37.5929C189.807 37.8948 189.521 38.0855 189.045 38.0855C188.441 38.0855 187.948 37.8313 187.472 37.4499L186.789 38.2762C187.424 38.8323 188.219 39.1183 189.013 39.1183C190.141 39.1183 190.936 38.5304 190.936 37.4817C190.936 36.5602 190.332 36.1788 189.267 35.9087Z" fill="#2E7BB2"/>
<path id="Vector_23" d="M67.6702 37.0685L65.7 33.7795H64.6831V39.0546H65.8271V35.9404L67.3842 38.4985H67.9244L69.4815 35.9086V39.0546H70.6255V33.7795H69.6086L67.6702 37.0685Z" fill="#2E7BB2"/>
<path id="Vector_24" d="M73.1043 36.862H75.5512V35.9086H73.1043V34.7646H75.8689V33.7795H71.8809V39.0546H75.9643V38.0854H73.1043V36.862Z" fill="#2E7BB2"/>
<path id="Vector_25" d="M81.1124 33.7795H76.5205V34.7805H78.2047V39.0546H79.4282V34.7805H81.1124V33.7795Z" fill="#2E7BB2"/>
<path id="Vector_26" d="M82.9873 33.7795L80.6357 39.0546H81.891L82.3676 37.9265H84.8145L85.2912 39.0546H86.5781L84.2107 33.7795H82.9873ZM82.7489 37.005L83.5911 34.9871L84.4332 37.005H82.7489Z" fill="#2E7BB2"/>
<path id="Vector_27" d="M88.3414 33.7795H87.1021V39.0546H90.963V38.0695H88.3414V33.7795Z" fill="#2E7BB2"/>
<path id="Vector_28" d="M27.138 0C12.1549 0 0 12.1549 0 27.138C0 28.1231 0.0476663 29.0765 0.158888 30.0298L7.40417 23.6425V14.9196H12.0755V19.5273L27.1539 6.21251L54.1172 30.2522C54.2284 29.2354 54.3078 28.1867 54.3078 27.138C54.2761 12.1549 42.1212 0 27.138 0Z" fill="#A41C35"/>
<path id="Vector_29" d="M42.6139 42.8521C32.5087 41.5333 27.7579 36.7985 21.1482 36.5125C20.9099 36.4966 20.6715 36.4966 20.4332 36.4966C14.8086 36.4966 9.8036 39.2612 6.33984 43.0904C8.46894 41.9782 13.1085 41.0726 22.7847 44.012C30.1571 46.2523 34.2246 47.9842 37.8314 48.0001H37.895C41.4699 47.9842 44.6 46.2682 50.0658 41.6445C50.1452 41.5174 50.2405 41.3744 50.32 41.2473C48.5881 42.5025 46.1253 43.3129 42.6139 42.8521Z" fill="#2E7BB2"/>
<path id="Vector_30" d="M1.271 35.3843C1.93832 37.4657 2.84398 39.436 3.9562 41.2632C6.18063 38.5462 14.3157 30.141 27.122 34.6058C41.3266 39.5631 45.3624 41.9146 52.703 36.1946C52.7983 35.9245 52.8936 35.6544 52.989 35.3843L26.9949 12.4409L1.271 35.3843ZM26.3594 30.2522H22.7844V26.6773H26.3594V30.2522ZM26.3594 25.1996H22.7844V21.6246H26.3594V25.1996ZM27.9165 21.6246H31.4915V25.1996H27.9165V21.6246ZM27.9165 26.6773H31.4915V30.2522H27.9165V26.6773Z" fill="#2E7BB2"/>
</g>
</svg>
